<mxfile host="app.diagrams.net" modified="2024-07-11T06:20:26.447Z" agent="Mozilla/5.0 (Windows NT 10.0; Win64; x64) AppleWebKit/537.36 (KHTML, like Gecko) Chrome/126.0.0.0 Safari/537.36" etag="2mWn3gjswHe3R7Q-mn0b" version="24.6.4" type="device">
  <diagram name="페이지-1" id="AgX4ZW0-Dqr8SKiTjsvv">
    <mxGraphModel dx="1802" dy="1092" grid="1" gridSize="10" guides="1" tooltips="1" connect="1" arrows="1" fold="1" page="1" pageScale="1" pageWidth="4681" pageHeight="3300" math="0" shadow="0">
      <root>
        <mxCell id="0" />
        <mxCell id="1" parent="0" />
        <mxCell id="M4-Ia4zdqxRT46iFurV6-8" style="rounded=0;orthogonalLoop=1;jettySize=auto;html=1;entryX=0.5;entryY=0;entryDx=0;entryDy=0;" edge="1" parent="1" source="M4-Ia4zdqxRT46iFurV6-1" target="M4-Ia4zdqxRT46iFurV6-2">
          <mxGeometry relative="1" as="geometry" />
        </mxCell>
        <mxCell id="M4-Ia4zdqxRT46iFurV6-9" style="rounded=0;orthogonalLoop=1;jettySize=auto;html=1;entryX=0.5;entryY=0;entryDx=0;entryDy=0;" edge="1" parent="1" source="M4-Ia4zdqxRT46iFurV6-1" target="M4-Ia4zdqxRT46iFurV6-3">
          <mxGeometry relative="1" as="geometry" />
        </mxCell>
        <mxCell id="M4-Ia4zdqxRT46iFurV6-10" style="rounded=0;orthogonalLoop=1;jettySize=auto;html=1;entryX=0.5;entryY=0;entryDx=0;entryDy=0;" edge="1" parent="1" source="M4-Ia4zdqxRT46iFurV6-1" target="M4-Ia4zdqxRT46iFurV6-4">
          <mxGeometry relative="1" as="geometry" />
        </mxCell>
        <mxCell id="M4-Ia4zdqxRT46iFurV6-11" style="rounded=0;orthogonalLoop=1;jettySize=auto;html=1;" edge="1" parent="1" source="M4-Ia4zdqxRT46iFurV6-1" target="M4-Ia4zdqxRT46iFurV6-5">
          <mxGeometry relative="1" as="geometry" />
        </mxCell>
        <mxCell id="M4-Ia4zdqxRT46iFurV6-13" style="rounded=0;orthogonalLoop=1;jettySize=auto;html=1;entryX=0.5;entryY=0;entryDx=0;entryDy=0;" edge="1" parent="1" source="M4-Ia4zdqxRT46iFurV6-1" target="M4-Ia4zdqxRT46iFurV6-6">
          <mxGeometry relative="1" as="geometry" />
        </mxCell>
        <mxCell id="M4-Ia4zdqxRT46iFurV6-14" style="rounded=0;orthogonalLoop=1;jettySize=auto;html=1;entryX=0.5;entryY=0;entryDx=0;entryDy=0;" edge="1" parent="1" source="M4-Ia4zdqxRT46iFurV6-1" target="M4-Ia4zdqxRT46iFurV6-7">
          <mxGeometry relative="1" as="geometry" />
        </mxCell>
        <mxCell id="M4-Ia4zdqxRT46iFurV6-1" value="학상정보" style="rounded=1;arcSize=10;whiteSpace=wrap;html=1;align=center;" vertex="1" parent="1">
          <mxGeometry x="430" y="210" width="190" height="50" as="geometry" />
        </mxCell>
        <mxCell id="M4-Ia4zdqxRT46iFurV6-2" value="학번" style="ellipse;whiteSpace=wrap;html=1;align=center;fontStyle=4;" vertex="1" parent="1">
          <mxGeometry x="200" y="420" width="100" height="40" as="geometry" />
        </mxCell>
        <mxCell id="M4-Ia4zdqxRT46iFurV6-3" value="학생이름" style="ellipse;whiteSpace=wrap;html=1;align=center;" vertex="1" parent="1">
          <mxGeometry x="316" y="420" width="100" height="40" as="geometry" />
        </mxCell>
        <mxCell id="M4-Ia4zdqxRT46iFurV6-4" value="학과" style="ellipse;whiteSpace=wrap;html=1;align=center;" vertex="1" parent="1">
          <mxGeometry x="432" y="420" width="100" height="40" as="geometry" />
        </mxCell>
        <mxCell id="M4-Ia4zdqxRT46iFurV6-5" value="학년" style="ellipse;whiteSpace=wrap;html=1;align=center;" vertex="1" parent="1">
          <mxGeometry x="548" y="420" width="100" height="40" as="geometry" />
        </mxCell>
        <mxCell id="M4-Ia4zdqxRT46iFurV6-6" value="전화번호" style="ellipse;whiteSpace=wrap;html=1;align=center;" vertex="1" parent="1">
          <mxGeometry x="664" y="420" width="100" height="40" as="geometry" />
        </mxCell>
        <mxCell id="M4-Ia4zdqxRT46iFurV6-7" value="주소" style="ellipse;whiteSpace=wrap;html=1;align=center;" vertex="1" parent="1">
          <mxGeometry x="780" y="420" width="100" height="40" as="geometry" />
        </mxCell>
      </root>
    </mxGraphModel>
  </diagram>
</mxfile>
